<?xml version="1.0" encoding="UTF-8"?>
<svg width="24" height="24" version="1.1" viewBox="0 0 24 24" xmlns="http://www.w3.org/2000/svg">
 <!-- Credits: Google Material Icons. "baseline-quiz" combined with "baseline-forward-5". Color modified. -->
 <path d="M4 6H2v14c0 1.1.9 2 2 2h14v-2H4z" fill="#195238"/>
 <path d="m20 2h-12c-1.1 0-2 0.9-2 2v12c0 1.1 0.9 2 2 2h12c1.1 0 2-0.9 2-2v-12c0-1.1-0.9-2-2-2" fill="#48c78e"/>
 <path d="m18 10c0 2.1-1.7 3.8-3.8 3.8s-3.8-1.7-3.8-3.8c0-2.1 1.7-3.8 3.8-3.8v2.5l3.1-3.1-3.1-3.1v2.5c-2.8 0-5 2.2-5 5 0 2.8 2.2 5 5 5s5-2.2 5-5z" fill="#fff" stroke-width=".62"/>
</svg>